HIERARCHY
ROOT hip
{
  OFFSET 0 0 0
  CHANNELS 6 Xposition Yposition Zposition Zrotation Yrotation Xrotation
  JOINT abdomen
  {
    OFFSET 0 20.6881 -0.73152
    CHANNELS 3 Zrotation Xrotation Yrotation
    JOINT chest
    {
      OFFSET 0 11.7043 -0.48768
      CHANNELS 3 Zrotation Xrotation Yrotation
      JOINT neck
      {
        OFFSET 0 22.1894 -2.19456
        CHANNELS 3 Zrotation Xrotation Yrotation
        JOINT head
        {
          OFFSET -0.24384 7.07133 1.2192
          CHANNELS 3 Zrotation Xrotation Yrotation
          JOINT leftEye
          {
            OFFSET 4.14528 8.04674 8.04672
            CHANNELS 3 Zrotation Xrotation Yrotation
            End Site
            {
              OFFSET 1 0 0
            }
          }
          JOINT rightEye
          {
            OFFSET -3.6576 8.04674 8.04672
            CHANNELS 3 Zrotation Xrotation Yrotation
            End Site
            {
              OFFSET 1 0 0
            }
          }
        }
      }
      JOINT rCollar
      {
        OFFSET -2.68224 19.2634 -4.8768
        CHANNELS 3 Zrotation Xrotation Yrotation
        JOINT rShldr
        {
          OFFSET -8.77824 -1.95073 1.46304
          CHANNELS 3 Zrotation Xrotation Yrotation
          JOINT rForeArm
          {
            OFFSET -28.1742 -1.7115 0.48768
            CHANNELS 3 Zrotation Xrotation Yrotation
            JOINT rHand
            {
              OFFSET -22.5879 0.773209 7.07136
              CHANNELS 3 Zrotation Xrotation Yrotation
              JOINT rThumb1
              {
                OFFSET -1.2192 -0.487915 3.41376
                CHANNELS 3 Zrotation Xrotation Yrotation
                JOINT rThumb2
                {
                  OFFSET -3.37035 -0.52449 3.41376
                  CHANNELS 3 Zrotation Xrotation Yrotation
                  End Site
                  {
                    OFFSET -1.78271 -1.18214 1.43049
                  }
                }
              }
              JOINT rIndex1
              {
                OFFSET -7.75947 0.938293 5.60832
                CHANNELS 3 Zrotation Xrotation Yrotation
                JOINT rIndex2
                {
                  OFFSET -2.54057 -0.884171 1.56538
                  CHANNELS 3 Zrotation Xrotation Yrotation
                  End Site
                  {
                    OFFSET -1.62519 -0.234802 1.16502
                  }
                }
              }
              JOINT rMid1
              {
                OFFSET -8.24714 1.18213 3.41376
                CHANNELS 3 Zrotation Xrotation Yrotation
                JOINT rMid2
                {
                  OFFSET -3.10165 -0.590103 1.0647
                  CHANNELS 3 Zrotation Xrotation Yrotation
                  End Site
                  {
                    OFFSET -2.48547 -0.328903 0.83742
                  }
                }
              }
              JOINT rRing1
              {
                OFFSET -8.82822 0.546677 1.51678
                CHANNELS 3 Zrotation Xrotation Yrotation
                JOINT rRing2
                {
                  OFFSET -2.60934 -0.819778 -0.0198488
                  CHANNELS 3 Zrotation Xrotation Yrotation
                  End Site
                  {
                    OFFSET -2.33842 -0.294052 0.168128
                  }
                }
              }
              JOINT rPinky1
              {
                OFFSET -8.27202 -0.0477905 -0.4584
                CHANNELS 3 Zrotation Xrotation Yrotation
                JOINT rPinky2
                {
                  OFFSET -1.82734 -0.647385 -0.700984
                  CHANNELS 3 Zrotation Xrotation Yrotation
                  End Site
                  {
                    OFFSET -1.69225 -0.51767 -0.607171
                  }
                }
              }
            }
          }
        }
      }
      JOINT lCollar
      {
        OFFSET 2.68224 19.2634 -4.8768
        CHANNELS 3 Zrotation Xrotation Yrotation
        JOINT lShldr
        {
          OFFSET 8.77824 -1.95073 1.46304
          CHANNELS 3 Zrotation Xrotation Yrotation
          JOINT lForeArm
          {
            OFFSET 28.1742 -1.7115 0.48768
            CHANNELS 3 Zrotation Xrotation Yrotation
            JOINT lHand
            {
              OFFSET 22.5879 0.773209 7.07136
              CHANNELS 3 Zrotation Xrotation Yrotation
              JOINT lThumb1
              {
                OFFSET 1.2192 -0.487915 3.41376
                CHANNELS 3 Zrotation Xrotation Yrotation
                JOINT lThumb2
                {
                  OFFSET 3.37035 -0.52449 3.41376
                  CHANNELS 3 Zrotation Xrotation Yrotation
                  End Site
                  {
                    OFFSET 1.78271 -1.18214 1.43049
                  }
                }
              }
              JOINT lIndex1
              {
                OFFSET 7.75947 0.938293 5.60832
                CHANNELS 3 Zrotation Xrotation Yrotation
                JOINT lIndex2
                {
                  OFFSET 2.54057 -0.884171 1.56538
                  CHANNELS 3 Zrotation Xrotation Yrotation
                  End Site
                  {
                    OFFSET 1.62519 -0.234802 1.16502
                  }
                }
              }
              JOINT lMid1
              {
                OFFSET 8.24714 1.18213 3.41376
                CHANNELS 3 Zrotation Xrotation Yrotation
                JOINT lMid2
                {
                  OFFSET 3.10165 -0.590103 1.0647
                  CHANNELS 3 Zrotation Xrotation Yrotation
                  End Site
                  {
                    OFFSET 2.48547 -0.328903 0.83742
                  }
                }
              }
              JOINT lRing1
              {
                OFFSET 8.82822 0.546677 1.51678
                CHANNELS 3 Zrotation Xrotation Yrotation
                JOINT lRing2
                {
                  OFFSET 2.60934 -0.819778 -0.0198488
                  CHANNELS 3 Zrotation Xrotation Yrotation
                  End Site
                  {
                    OFFSET 2.33842 -0.294052 0.168128
                  }
                }
              }
              JOINT lPinky1
              {
                OFFSET 8.27202 -0.0477905 -0.4584
                CHANNELS 3 Zrotation Xrotation Yrotation
                JOINT lPinky2
                {
                  OFFSET 1.82734 -0.647385 -0.700984
                  CHANNELS 3 Zrotation Xrotation Yrotation
                  End Site
                  {
                    OFFSET 1.69225 -0.51767 -0.607171
                  }
                }
              }
            }
          }
        }
      }
    }
  }
  JOINT rButtock
  {
    OFFSET -8.77824 4.35084 1.2192
    CHANNELS 3 Zrotation Xrotation Yrotation
    JOINT rThigh
    {
      OFFSET 0 -1.70687 -2.19456
      CHANNELS 3 Zrotation Xrotation Yrotation
      JOINT rShin
      {
        OFFSET 0 -36.8199 0.73152
        CHANNELS 3 Zrotation Xrotation Yrotation
        JOINT rFoot
        {
          OFFSET 0.73152 -45.1104 -5.12064
          CHANNELS 3 Zrotation Xrotation Yrotation
          End Site
          {
            OFFSET -1.1221 -3.69964 12.103
          }
        }
      }
    }
  }
  JOINT lButtock
  {
    OFFSET 8.77824 4.35084 1.2192
    CHANNELS 3 Zrotation Xrotation Yrotation
    JOINT lThigh
    {
      OFFSET 0 -1.70687 -2.19456
      CHANNELS 3 Zrotation Xrotation Yrotation
      JOINT lShin
      {
        OFFSET 0 -36.8199 0.73152
        CHANNELS 3 Zrotation Xrotation Yrotation
        JOINT lFoot
        {
          OFFSET -0.73152 -45.1104 -5.12064
          CHANNELS 3 Zrotation Xrotation Yrotation
          End Site
          {
            OFFSET 1.1221 -3.69964 12.103
          }
        }
      }
    }
  }
}
MOTION
Frames:	4
Frame Time:	0.03333
2.105156029504049 31.85329411893356 6.391859145335071 -17.14974594116211 -29.475683212280273 6.678744316101074 13.934919357299805 13.836233139038086 14.397880554199219 -1.1712195873260498 -7.363771915435791 4.136397361755371 -2.5141539573669434 13.996563911437988 1.356947422027588 6.165441513061523 -24.158506393432617 3.8605666160583496 0.03244657814502716 -0.015610899776220322 -0.18688949942588806 -0.18064282834529877 -0.003360434202477336 -0.023039449006319046 0.16130466759204865 -0.06245078518986702 -0.27423015236854553 65.58990478515625 44.25699234008789 -5.559214115142822 -21.832279205322266 -15.618826866149902 43.42152786254883 -0.4090709090232849 14.90185832977295 2.232743501663208 0.01873428001999855 0.10472127795219421 -0.18309223651885986 0.04619472101330757 0.11882918328046799 -0.13806261122226715 0.1248343214392662 -0.21070577204227448 0.02034137025475502 7.673818588256836 5.448661804199219 0.31144338846206665 -0.011024589650332928 0.05940166488289833 -0.04174002259969711 2.9785282611846924 1.002005934715271 0.23200517892837524 0.0835937112569809 -0.11013998836278915 -0.12719617784023285 10.319644927978516 0.7287316918373108 0.048634547740221024 0.005693972110748291 -0.06575428694486618 0.07680726796388626 2.2075443267822266 -0.7337417006492615 -0.27816057205200195 0.035715021193027496 -0.13031712174415588 0.006697914097458124 -63.90858840942383 32.64457321166992 -15.858692169189453 15.444437026977539 -8.453465461730957 -28.373838424682617 0.13234402239322662 11.859631538391113 -1.5690864324569702 0.08720309287309647 -0.1063714548945427 0.0771183893084526 0.002327954862266779 -0.1815892904996872 -0.08174988627433777 -0.10196466743946075 -0.015189864672720432 0.161068856716156 -7.542026042938232 5.440149307250977 -0.3884671926498413 -0.045302171260118484 -0.1004929393529892 -0.10297375172376633 -2.870668649673462 1.0143272876739502 -0.22106480598449707 -0.12498682737350464 0.011537470854818821 0.009938648901879787 -10.362906455993652 0.6994885206222534 0.038473304361104965 -0.023047830909490585 -0.14431142807006836 -0.015873709693551064 -2.271345853805542 -0.6807238459587097 0.05773666128516197 -0.13049277663230896 -0.13356077671051025 -0.06564414501190186 -11.551497459411621 10.998319625854492 0.5013741254806519 0.022281834855675697 35.051334381103516 2.2514455318450928 -9.727975845336914 -18.03475570678711 -28.4490909576416 -0.12906739115715027 0.039609700441360474 0.017213912680745125 72.87277221679688 -46.36337661743164 62.51351547241211 3.1942999362945557 75.82178497314453 -3.1828551292419434 -0.8620939254760742 -3.3820271492004395 -4.559826374053955
2.037019876613 31.788506359561403 6.122762552002116 -17.339092254638672 -29.38348960876465 6.919978618621826 14.153278350830078 13.645689010620117 14.335625648498535 -1.1914832592010498 -7.317145347595215 4.124369144439697 -2.5138895511627197 14.026233673095703 1.3797125816345215 6.150302410125732 -24.22256088256836 3.8788766860961914 0.04089891538023949 -0.020194724202156067 -0.19378280639648438 -0.18318688869476318 -0.010206104256212711 -0.018784724175930023 0.15862014889717102 -0.0506887324154377 -0.27515754103660583 65.72891998291016 44.34812927246094 -5.810098648071289 -21.87008285522461 -15.699250221252441 43.536415100097656 -0.40150532126426697 14.901564598083496 2.224760055541992 0.022075818851590157 0.10087008029222488 -0.18054868280887604 0.03766745701432228 0.11013508588075638 -0.13530440628528595 0.12224214524030685 -0.21389925479888916 0.020931530743837357 7.668952941894531 5.444104194641113 0.31129953265190125 -0.013549896888434887 0.05082816258072853 -0.04974367097020149 2.9808056354522705 0.99860680103302 0.22787398099899292 0.07185829430818558 -0.11203644424676895 -0.1340954750776291 10.321016311645508 0.7250030636787415 0.05254577100276947 0.005633717868477106 -0.06326204538345337 0.07627429068088531 2.202141761779785 -0.727954089641571 -0.2649517357349396 0.026356007903814316 -0.13363081216812134 0.009809697046875954 -63.92507553100586 32.564876556396484 -15.83209228515625 15.523238182067871 -8.544665336608887 -28.519105911254883 0.13374751806259155 11.72256088256836 -1.5547206401824951 0.09413933008909225 -0.10344992578029633 0.08165790885686874 0.005185908637940884 -0.18551768362522125 -0.09071783721446991 -0.10693872720003128 -0.021103108301758766 0.16030353307724 -7.539758205413818 5.428694248199463 -0.39667996764183044 -0.05002245679497719 -0.09711490571498871 -0.10844998806715012 -2.8667008876800537 1.0236791372299194 -0.22623853385448456 -0.1287621408700943 0.007522289175540209 0.014315598644316196 -10.358311653137207 0.6885837316513062 0.03874589130282402 -0.0251312218606472 -0.13496746122837067 -0.012235928326845169 -2.262444019317627 -0.6753758192062378 0.06348556280136108 -0.12918606400489807 -0.12897580862045288 -0.06286343187093735 -11.362576484680176 11.191343307495117 0.5180228352546692 0.016445759683847427 34.68092727661133 2.252371311187744 -9.731138229370117 -18.089401245117188 -28.45746612548828 -0.11875426769256592 0.03849368914961815 0.005440807435661554 73.61560821533203 -46.431758880615234 62.9560432434082 3.3280093669891357 76.19380187988281 -3.3084075450897217 -0.9144282341003418 -3.611386299133301 -4.654628753662109
1.9609835427297737 31.84686691092458 5.866780802329657 -17.01983642578125 -29.43001937866211 6.743269920349121 13.90711498260498 13.808612823486328 14.354375839233398 -1.151572823524475 -7.334408760070801 4.144434452056885 -2.5437161922454834 14.052228927612305 1.3040497303009033 6.111050605773926 -24.289981842041016 3.7278249263763428 0.04793194681406021 -0.03809196874499321 -0.1901092529296875 -0.18340086936950684 -0.0104800621047616 -0.011720924638211727 0.15664313733577728 -0.0526781901717186 -0.28718677163124084 65.6269760131836 44.020118713378906 -5.567275047302246 -21.640771865844727 -15.33243465423584 42.929866790771484 -0.42423951625823975 14.929313659667969 2.2183597087860107 0.020919177681207657 0.11373471468687057 -0.19496862590312958 0.03782152384519577 0.12164221704006195 -0.1451074182987213 0.12400989234447479 -0.20766031742095947 0.04410872980952263 7.675779819488525 5.426778316497803 0.32527226209640503 -0.02306302636861801 0.03560463711619377 -0.048748038709163666 2.9741814136505127 1.02928626537323 0.22498513758182526 0.07697851210832596 -0.11595386266708374 -0.11759775876998901 10.320075035095215 0.7118828892707825 0.044073302298784256 0.011624235659837723 -0.06454703211784363 0.08038392663002014 2.1932225227355957 -0.7358543276786804 -0.2543644607067108 0.044909484684467316 -0.1342768669128418 0.018076442182064056 -64.1761703491211 32.4134407043457 -15.542381286621094 15.302720069885254 -8.248355865478516 -28.097126007080078 0.1489088535308838 12.092167854309082 -1.6200746297836304 0.09700191766023636 -0.10641374439001083 0.07780004292726517 -0.0024314112961292267 -0.17497752606868744 -0.09113647043704987 -0.10220697522163391 -0.040183428674936295 0.16616128385066986 -7.566291809082031 5.437152862548828 -0.4031890630722046 -0.06643501669168472 -0.09562132507562637 -0.12103711068630219 -2.865511655807495 1.0164343118667603 -0.2237825244665146 -0.1310218870639801 0.003960966132581234 0.02356535941362381 -10.363119125366211 0.7174661159515381 0.05878062546253204 0.001320234383456409 -0.1515083611011505 -0.01377792563289404 -2.2652463912963867 -0.6588457822799683 0.0558738075196743 -0.12633688747882843 -0.13588610291481018 -0.07932612299919128 -11.373062133789062 10.842324256896973 0.4658620059490204 0.012472053989768028 35.22355270385742 2.2829599380493164 -9.696266174316406 -18.065481185913086 -28.30989646911621 -0.10789735615253448 0.03235548362135887 -0.010379059240221977 73.0250015258789 -46.49809646606445 62.366939544677734 3.328892946243286 76.04043579101562 -3.35211181640625 -0.8631611466407776 -3.731917381286621 -4.38348388671875
1.867194053089803 31.87552638468195 5.622477528879583 -16.632144927978516 -29.505531311035156 6.468920707702637 13.511486053466797 14.067873001098633 14.430728912353516 -1.115448236465454 -7.368785858154297 4.1692609786987305 -2.573629856109619 14.057207107543945 1.2170544862747192 6.0801615715026855 -24.385286331176758 3.574713706970215 0.052363958209753036 -0.05072906240820885 -0.1797035187482834 -0.18010583519935608 -0.0006219458300620317 -0.004733296111226082 0.15646257996559143 -0.060676027089357376 -0.2943248748779297 65.32715606689453 43.68941116333008 -5.087255477905273 -21.4146671295166 -14.985177993774414 42.33758544921875 -0.4438156485557556 14.966142654418945 2.2161073684692383 0.020060159265995026 0.1156935915350914 -0.20608091354370117 0.044467415660619736 0.13513001799583435 -0.1538781374692917 0.12091852724552155 -0.1928803026676178 0.05689509958028793 7.691443920135498 5.428055286407471 0.3320443332195282 -0.016598854213953018 0.018028732389211655 -0.04071728512644768 2.9674861431121826 1.0538561344146729 0.22529740631580353 0.0968485027551651 -0.12368020415306091 -0.09853453189134598 10.317952156066895 0.7054231762886047 0.03637167438864708 0.013172339648008347 -0.0642419308423996 0.07271993160247803 2.188385009765625 -0.7472567558288574 -0.24436336755752563 0.0628482848405838 -0.12558740377426147 0.027402978390455246 -64.40070343017578 32.35927963256836 -15.228923797607422 15.10965633392334 -7.991721153259277 -27.731046676635742 0.15959899127483368 12.414521217346191 -1.6532434225082397 0.09698128700256348 -0.10567060112953186 0.07631289213895798 -0.00268875015899539 -0.1652161031961441 -0.08641868829727173 -0.095008485019207 -0.053862038999795914 0.16839726269245148 -7.58703088760376 5.456000328063965 -0.40565451979637146 -0.07449814677238464 -0.09676218777894974 -0.11419368535280228 -2.860133409500122 1.0064204931259155 -0.2142714262008667 -0.1294526308774948 -0.0023364045191556215 0.02727505750954151 -10.373531341552734 0.7407311201095581 0.07159058749675751 0.010428991168737411 -0.17358456552028656 -0.012658478692173958 -2.2757656574249268 -0.6536070704460144 0.045474715530872345 -0.1175198182463646 -0.13484227657318115 -0.10346511006355286 -11.522443771362305 10.437068939208984 0.44114211201667786 0.0034545152448117733 35.926719665527344 2.3122506141662598 -9.6579008102417 -18.05164909362793 -28.19745445251465 -0.107540063560009 0.03224040940403938 -0.026761673390865326 72.18191528320312 -46.57075881958008 61.696861267089844 3.3103513717651367 75.85191345214844 -3.3679728507995605 -0.7883464694023132 -3.8123180866241455 -3.9757657051086426
